# Blender 3.6.2
# www.blender.org
mtllib arrow.mtl
o object0
v 0.080000 -0.000000 -0.360000
v 0.100000 -0.000000 -0.440000
v 0.010000 -0.000000 -0.420000
v 0.010000 -0.000000 -0.300000
v -0.080000 -0.000000 -0.360000
v -0.100000 -0.000000 -0.440000
v -0.010000 -0.000000 -0.420000
v -0.010000 -0.000000 -0.300000
v 0.010000 -0.000000 -0.500000
v 0.000000 -0.010000 -0.500000
v -0.010000 -0.000000 -0.500000
v 0.000000 0.010000 -0.500000
v 0.000000 0.000000 0.500000
v -0.010000 0.000000 0.480000
v 0.000000 -0.010000 0.480000
v 0.010000 0.000000 0.480000
v 0.000000 0.010000 0.480000
vn -0.0000 1.0000 -0.0000
vn -0.0000 -1.0000 -0.0000
vn -0.0000 -0.0000 -1.0000
vn -0.6667 -0.6667 0.3333
vn 0.6667 -0.6667 0.3333
vn 0.6667 0.6667 0.3333
vn -0.6667 0.6667 0.3333
vn -0.7071 0.7071 -0.0000
vn 0.7071 0.7071 -0.0000
vn 0.7071 -0.7071 -0.0000
vn -0.7071 -0.7071 -0.0000
vt 0.656250 0.406250
vt 0.968750 1.000000
vt 0.187500 1.000000
vt 0.000000 0.031250
vt 0.968750 0.031250
vt 0.656250 0.656250
vt 0.000000 1.000000
vt 0.218750 0.031250
vt 0.312500 0.656250
vt 0.750000 0.031250
vt 0.000000 -4.968750
vt 1.500000 -4.968750
vt 0.500000 -3.000000
vt 1.500000 -3.031250
vt 0.000000 -3.031250
vt 0.031250 -4.968750
vt 0.031250 -3.031250
vt 1.531250 -4.968750
vt 1.531250 -3.031250
s 0
usemtl mtl11
f 1/1/1 2/2/1 3/3/1
f 4/4/1 1/1/1 3/3/1
f 2/5/2 1/6/2 4/7/2
f 3/8/2 2/5/2 4/7/2
f 5/9/2 6/4/2 7/10/2
f 8/2/2 5/9/2 7/10/2
f 6/5/1 5/6/1 8/7/1
f 7/8/1 6/5/1 8/7/1
usemtl mtl12
f 9/11/3 10/12/3 11/12/3
f 12/11/3 9/11/3 11/12/3
f 13/13/4 14/14/4 15/14/4
f 13/13/5 15/14/5 16/15/5
f 13/13/6 16/15/6 17/15/6
f 13/13/7 17/15/7 14/14/7
f 12/11/8 11/12/8 14/14/8
f 17/15/8 12/11/8 14/14/8
f 9/16/9 12/16/9 17/17/9
f 16/17/9 9/16/9 17/17/9
f 10/12/10 9/11/10 16/15/10
f 15/14/10 10/12/10 16/15/10
f 11/18/11 10/18/11 15/19/11
f 14/19/11 11/18/11 15/19/11
